<svg width="12" height="22" viewBox="0 0 12 22" fill="none" xmlns="http://www.w3.org/2000/svg">
<path d="M11.3714 5.68552C11.3714 2.55046 8.82084 0 5.68569 0C2.55055 0 0 2.55046 0 5.68552C0 6.40642 0.218534 7.23921 0.253212 7.36565L0.25278 7.36582C0.45791 8.07357 0.764653 8.75356 1.08938 9.47342C1.81434 11.0806 2.63599 12.902 2.63599 15.7425C2.63599 18.4883 1.68445 20.4973 1.39284 21.0477C1.28639 21.2487 1.29296 21.4909 1.41022 21.6858C1.52749 21.8807 1.73841 22 1.96594 22H9.40553C9.63306 22 9.8439 21.8807 9.96125 21.6858C10.0785 21.4909 10.0852 21.2487 9.97863 21.0477C9.68702 20.4974 8.73549 18.4883 8.73549 15.7425C8.73549 12.902 9.55713 11.0805 10.2821 9.47342C10.6069 8.75356 10.9136 8.07348 11.1187 7.36582L11.1183 7.36565C11.1529 7.23921 11.3714 6.40642 11.3714 5.68552ZM5.68569 1.2972C8.10548 1.2972 10.0742 3.26582 10.0742 5.68552C10.0742 6.05323 9.9897 6.49705 9.92968 6.76652C9.57166 6.46107 9.1224 6.29339 8.64667 6.29339C8.13238 6.29339 7.64887 6.48944 7.27856 6.84383C6.4794 5.17313 5.46629 3.59851 4.38348 3.2583C3.92575 3.11439 3.47285 3.17744 3.07375 3.44068C2.56023 3.77942 2.09341 4.57815 2.6532 6.1187C2.66176 6.14213 2.64412 6.09405 2.65285 6.1174C2.65302 6.11783 2.65311 6.11826 2.6532 6.1187C2.80549 6.59736 2.54959 7.10266 2.23706 7.20307C1.87194 7.32033 1.47794 6.97839 1.39154 6.52403C1.3432 6.27004 1.29711 5.95689 1.29711 5.68543C1.2972 3.26582 3.26591 1.2972 5.68569 1.2972ZM6.21936 11.4113C6.16877 9.64958 5.68613 8.87558 5.01816 7.80436L4.92865 7.66072C3.33725 5.10152 3.65333 4.61248 3.78816 4.52367C3.86019 4.47619 3.91044 4.46936 3.99467 4.49599C4.57218 4.67743 5.66295 6.13746 6.79834 8.99043C6.79981 8.99406 6.80163 8.99735 6.8031 9.00089C6.90151 9.25091 7.04991 9.48077 7.24553 9.67638C7.59205 10.023 8.04486 10.223 8.5301 10.2511C7.95795 11.6649 7.43838 13.3999 7.43838 15.7426C7.43838 16.6501 7.53039 17.4813 7.66945 18.2218H3.99588C5.55009 15.3716 6.27946 13.5101 6.21936 11.4113ZM9.13087 8.75892C9.00159 8.8883 8.82966 8.95947 8.64667 8.95947C8.46385 8.95947 8.29193 8.8883 8.16265 8.75892C8.03336 8.62972 7.96218 8.45797 7.96218 8.27516C7.96218 8.09234 8.03344 7.92042 8.16273 7.79104C8.29202 7.66167 8.46385 7.59058 8.64667 7.59058C8.82949 7.59058 9.00141 7.66175 9.13078 7.79104C9.26016 7.92033 9.33125 8.09216 9.33125 8.27507C9.33133 8.45797 9.26007 8.62981 9.13087 8.75892ZM2.27182 8.94001C2.20757 8.79758 2.14444 8.65714 2.0826 8.51782C2.09393 8.51808 2.10518 8.51937 2.11659 8.51937C2.28765 8.51937 2.46017 8.49343 2.63063 8.43929C2.98407 8.32661 3.28372 8.10955 3.51168 7.82788C3.61563 8.00248 3.72139 8.17562 3.82707 8.34555L3.91744 8.49066C4.53949 9.48829 4.88221 10.0379 4.92268 11.4484C4.95719 12.6566 4.70164 13.7943 3.93068 15.4802C3.88086 12.5079 2.99099 10.5344 2.27182 8.94001ZM2.97948 20.7028C3.11578 20.3668 3.25873 19.9699 3.3913 19.519H7.98009C8.11266 19.97 8.25561 20.3669 8.3919 20.7028H2.97948Z" fill="#FFDE29"/>
</svg>
